FFmpeg version SVN-r25716, Copyright (c) 2000-2010 the FFmpeg developers  built on Nov 10 2010 12:23:18 with gcc 4.1.2 20080704 (Red Hat 4.1.2-48)  configuration: --enable-libmp3lame --enable-shared --disable-mmx --arch=x86_64  libavutil     50.33. 0 / 50.33. 0  libavcore      0.12. 1 /  0.12. 1  libavcodec    52.94. 4 / 52.94. 4  libavformat   52.84. 0 / 52.84. 0  libavdevice   52. 2. 2 / 52. 2. 2  libavfilter    1.59. 0 /  1.59. 0  libswscale     0.12. 0 /  0.12. 0Seems stream 0 codec frame rate differs from container frame rate: 1200.00 (1200/1) -> 50.00 (50/1)Input #0, mov,mp4,m4a,3gp,3g2,mj2, from '/RAID10/data/converted_video_files/11990.mov':  Metadata:    major_brand     : qt      minor_version   : 537199360    compatible_brands: qt    Duration: 00:00:10.00, start: 0.000000, bitrate: 4679 kb/s    Stream #0.0(eng): Video: h264, yuv420p, 864x260, 4672 kb/s, 50 fps, 50 tbr, 600 tbn, 1200 tbc[buffer @ 0xd77f0d0] w:864 h:260 pixfmt:yuv420pOutput #0, flv, to '/RAID10/data/converted_video_files/11990.flv':  Metadata:    encoder         : Lavf52.84.0    Stream #0.0(eng): Video: flv, yuv420p, 864x260, q=2-31, 600 kb/s, 1k tbn, 24 tbcStream mapping:  Stream #0.0 -> #0.0Press [q] to stop encodingframe=   31 fps=  0 q=6.7 size=     223kB time=1.29 bitrate=1417.0kbits/s dup=0 drop=33    frame=   63 fps= 61 q=6.9 size=     334kB time=2.62 bitrate=1041.7kbits/s dup=0 drop=66    frame=   92 fps= 60 q=11.4 size=     437kB time=3.83 bitrate= 934.4kbits/s dup=0 drop=99    frame=  123 fps= 55 q=10.0 size=     552kB time=5.12 bitrate= 881.6kbits/s dup=0 drop=132    frame=  140 fps= 55 q=7.0 size=     601kB time=5.83 bitrate= 844.5kbits/s dup=0 drop=150    frame=  170 fps= 56 q=7.7 size=     711kB time=7.08 bitrate= 822.2kbits/s dup=0 drop=182    frame=  202 fps= 57 q=6.1 size=     811kB time=8.42 bitrate= 788.8kbits/s dup=0 drop=218    frame=  231 fps= 57 q=7.4 size=     883kB time=9.62 bitrate= 751.8kbits/s dup=0 drop=248    frame=  241 fps= 57 q=7.0 Lsize=     912kB time=10.04 bitrate= 743.8kbits/s dup=0 drop=259    video:908kB audio:0kB global headers:0kB muxing overhead 0.437393%